<svg xmlns="http://www.w3.org/2000/svg" xmlns:xlink="http://www.w3.org/1999/xlink" width="1092.419" height="206.8" viewBox="0 0 1092.419 206.8">
  <defs>
    <linearGradient id="linear-gradient" x1="0.153" y1="0.409" x2="0.903" y2="0.414" gradientUnits="objectBoundingBox">
      <stop offset="0" stop-color="#028178"/>
      <stop offset="1" stop-color="#346e7d"/>
    </linearGradient>
  </defs>
  <path id="cyan-bank" d="M206.45,236.8q-6.8-3-3.8-9.6l19.887-43.838-.087-.161-44.6-92.4a6.945,6.945,0,0,1-.4-5.6,8.264,8.264,0,0,1,9.6-4.5,6.938,6.938,0,0,1,4,3.9l38.982,82.238L267.25,84.8q3-6.4,9.6-3.6,6.8,2.8,3.8,9.4L215.85,233q-2,4.6-5.8,4.6A9.818,9.818,0,0,1,206.45,236.8Zm-127.5-51a77.4,77.4,0,0,1-24.8-17.3,81.343,81.343,0,0,1-16.7-25.6,83.728,83.728,0,0,1-.1-62,79.351,79.351,0,0,1,41.4-42.8,73.913,73.913,0,0,1,30.5-6.3,77.7,77.7,0,0,1,26.2,4.2,74.642,74.642,0,0,1,22.8,13.4,5.167,5.167,0,0,1,2.1,3.3,6.045,6.045,0,0,1-.5,3.6,5.152,5.152,0,0,1-2.4,2.5,3.58,3.58,0,0,1-2,2.4,6.7,6.7,0,0,1-3.7.6,7.729,7.729,0,0,1-4.1-1.8,52.955,52.955,0,0,0-17-10.1,63.308,63.308,0,0,0-21.4-3.3,57.421,57.421,0,0,0-24.3,5.2A64.671,64.671,0,0,0,65.05,66a67,67,0,0,0-13.5,20.8,64.532,64.532,0,0,0-4.9,25,65.558,65.558,0,0,0,4.9,25.4A66.991,66.991,0,0,0,65.05,158a63.3,63.3,0,0,0,19.9,14.1,58.374,58.374,0,0,0,24.3,5.1,59.834,59.834,0,0,0,20.8-3.6,69.6,69.6,0,0,0,18.6-10.4,6.291,6.291,0,0,1,5.1-1.6,8.2,8.2,0,0,1,4.7,2.4,7.035,7.035,0,0,1,2,5.2,8.028,8.028,0,0,1-.5,2.9,9.451,9.451,0,0,1-1.7,2.7,59.184,59.184,0,0,1-22.8,13.3,88.1,88.1,0,0,1-26.2,3.9A74.428,74.428,0,0,1,78.95,185.8Zm709.3-2.1a53.187,53.187,0,0,1-19.3-19.9,56.829,56.829,0,0,1-7.1-28.4,56,56,0,0,1,7.3-28.6,53.764,53.764,0,0,1,19.9-19.9,58.694,58.694,0,0,1,56.7,0,53.99,53.99,0,0,1,19.8,19.9,57.477,57.477,0,0,1,7.5,28.6v47a7.256,7.256,0,0,1-2.2,5.5,8.518,8.518,0,0,1-11.2,0,7.259,7.259,0,0,1-2.2-5.5V170.27a49.54,49.54,0,0,1-15.5,14.03,50.882,50.882,0,0,1-26.1,6.7A52.7,52.7,0,0,1,788.25,183.7Zm8.6-84.6a40.651,40.651,0,0,0-14.6,14.9,44.905,44.905,0,0,0,0,42.7,41.2,41.2,0,0,0,55.9,14.9,39.164,39.164,0,0,0,14.4-14.9,42.965,42.965,0,0,0,5.3-21.3,42.809,42.809,0,0,0-5.3-21.4,40.13,40.13,0,0,0-14.4-14.9,41.516,41.516,0,0,0-41.3,0Zm-143.3,84.7a53.463,53.463,0,0,1-19.8-19.7,56.154,56.154,0,0,1-7.5-28.1V41.6a7.247,7.247,0,0,1,7.8-7.8,7.437,7.437,0,0,1,5.5,2.1,7.7,7.7,0,0,1,2.1,5.7v58.8a48.3,48.3,0,0,1,17.5-15.1,51.636,51.636,0,0,1,24.3-5.7,52.544,52.544,0,0,1,46.9,27.2,56.837,56.837,0,0,1,7.1,28.4,56,56,0,0,1-7.3,28.6,53.772,53.772,0,0,1-19.9,19.9,55.99,55.99,0,0,1-28.6,7.3A55.27,55.27,0,0,1,653.549,183.8Zm7.5-84.8a38.212,38.212,0,0,0-14.4,14.9,43.618,43.618,0,0,0-5.2,21.3,43.464,43.464,0,0,0,5.2,21.4,39.294,39.294,0,0,0,35,20.4,39.616,39.616,0,0,0,35.3-20.4,42.81,42.81,0,0,0,5.3-21.4,42.961,42.961,0,0,0-5.3-21.3A38.929,38.929,0,0,0,702.45,99a42.374,42.374,0,0,0-41.4,0Zm-343.6,84.7a53.187,53.187,0,0,1-19.3-19.9,56.829,56.829,0,0,1-7.1-28.4,55.993,55.993,0,0,1,7.3-28.6,53.763,53.763,0,0,1,19.9-19.9,58.694,58.694,0,0,1,56.7,0,53.991,53.991,0,0,1,19.8,19.9,57.477,57.477,0,0,1,7.5,28.6v47a7.259,7.259,0,0,1-2.2,5.5,8.518,8.518,0,0,1-11.2,0,7.259,7.259,0,0,1-2.2-5.5V170.27a49.54,49.54,0,0,1-15.5,14.03,50.882,50.882,0,0,1-26.1,6.7A52.7,52.7,0,0,1,317.45,183.7Zm8.6-84.6a40.651,40.651,0,0,0-14.6,14.9,44.9,44.9,0,0,0,0,42.7,41.2,41.2,0,0,0,55.9,14.9,39.151,39.151,0,0,0,14.4-14.9,42.965,42.965,0,0,0,5.3-21.3,42.809,42.809,0,0,0-5.3-21.4,40.116,40.116,0,0,0-14.4-14.9,41.515,41.515,0,0,0-41.3,0Zm788.6,91.8a6.887,6.887,0,0,1-4.8-2.9l-41.143-50.553-15.057,13.6V182.4a7.6,7.6,0,1,1-15.2,0V41.4a7.6,7.6,0,1,1,15.2,0v90.958l56.4-50.958a6.94,6.94,0,0,1,5-2.1,6.836,6.836,0,0,1,4.8,2.5,7.053,7.053,0,0,1,2.1,5.1,6.291,6.291,0,0,1-2.5,4.7l-40.021,36.159L1121.05,179a6.987,6.987,0,0,1,1.8,5.1,7.092,7.092,0,0,1-2.8,4.9,7.268,7.268,0,0,1-4.731,1.936A6.282,6.282,0,0,1,1114.65,190.9Zm-123.4-3.1a7.342,7.342,0,0,1-2.2-5.4v-52q0-12.4-4.7-20.4a30,30,0,0,0-12.8-12,40.78,40.78,0,0,0-18.3-4,40.308,40.308,0,0,0-17.7,3.8,31.518,31.518,0,0,0-12.5,10.4,25.6,25.6,0,0,0-4.6,15v59.2a7.209,7.209,0,0,1-7.6,7.6,7.7,7.7,0,0,1-5.7-2.1,7.44,7.44,0,0,1-2.1-5.5v-94a7.247,7.247,0,0,1,7.8-7.8,7.434,7.434,0,0,1,5.5,2.1,7.7,7.7,0,0,1,2.1,5.7v6.759A46.054,46.054,0,0,1,931.25,85.1a49.02,49.02,0,0,1,23.6-5.7,53.662,53.662,0,0,1,25.4,5.9,43.331,43.331,0,0,1,17.7,17.3q6.5,11.4,6.5,27.8v52a7.512,7.512,0,0,1-7.6,7.6A7.586,7.586,0,0,1,991.25,187.8Zm-470.8,0a7.342,7.342,0,0,1-2.2-5.4v-52q0-12.4-4.7-20.4a30.01,30.01,0,0,0-12.8-12,40.781,40.781,0,0,0-18.3-4,40.307,40.307,0,0,0-17.7,3.8,31.518,31.518,0,0,0-12.5,10.4,25.6,25.6,0,0,0-4.6,15v59.2a7.209,7.209,0,0,1-7.6,7.6,7.7,7.7,0,0,1-5.7-2.1,7.437,7.437,0,0,1-2.1-5.5v-94a7.247,7.247,0,0,1,7.8-7.8,7.434,7.434,0,0,1,5.5,2.1,7.7,7.7,0,0,1,2.1,5.7v6.759A46.053,46.053,0,0,1,460.45,85.1a49.02,49.02,0,0,1,23.6-5.7,53.656,53.656,0,0,1,25.4,5.9,43.328,43.328,0,0,1,17.7,17.3q6.5,11.4,6.5,27.8v52a7.512,7.512,0,0,1-7.6,7.6A7.586,7.586,0,0,1,520.45,187.8Z" transform="translate(-30.949 -31.3)" stroke="rgba(0,0,0,0)" stroke-width="1" fill="url(#linear-gradient)"/>
</svg>
